<?xml version="1.0" encoding="UTF-8" standalone="no"?>
<!-- Created with Inkscape (http://www.inkscape.org/) -->

<svg
   xmlns:dc="http://purl.org/dc/elements/1.1/"
   xmlns:cc="http://creativecommons.org/ns#"
   xmlns:rdf="http://www.w3.org/1999/02/22-rdf-syntax-ns#"
   xmlns:svg="http://www.w3.org/2000/svg"
   xmlns="http://www.w3.org/2000/svg"
   xmlns:sodipodi="http://sodipodi.sourceforge.net/DTD/sodipodi-0.dtd"
   xmlns:inkscape="http://www.inkscape.org/namespaces/inkscape"
   id="svg2"
   version="1.1"
   inkscape:version="0.48.4 r9939"
   width="540"
   height="147.7475"
   xml:space="preserve"
   sodipodi:docname="barbell.svg"><metadata
     id="metadata8"><rdf:RDF><cc:Work
         rdf:about=""><dc:format>image/svg+xml</dc:format><dc:type
           rdf:resource="http://purl.org/dc/dcmitype/StillImage" /><dc:title></dc:title></cc:Work></rdf:RDF></metadata><defs
     id="defs6" /><sodipodi:namedview
     pagecolor="#ffffff"
     bordercolor="#666666"
     borderopacity="1"
     objecttolerance="10"
     gridtolerance="10"
     guidetolerance="10"
     inkscape:pageopacity="0"
     inkscape:pageshadow="2"
     inkscape:window-width="1366"
     inkscape:window-height="719"
     id="namedview4"
     showgrid="false"
     inkscape:zoom="1.9118072"
     inkscape:cx="270"
     inkscape:cy="97.368748"
     inkscape:window-x="0"
     inkscape:window-y="0"
     inkscape:window-maximized="1"
     inkscape:current-layer="g10"
     fit-margin-top="0"
     fit-margin-left="0"
     fit-margin-right="0"
     fit-margin-bottom="0" /><g
     id="g10"
     inkscape:groupmode="layer"
     inkscape:label="ink_ext_XXXXXX"
     transform="matrix(1.25,0,0,-1.25,0,147.7475)"><g
       id="g3515"><path
         d="m 101.001,114.003 c 0.074,0.32 0.074,0.68 0.058,1.049 -0.062,-0.063 -0.127,-0.128 -0.189,-0.19 l 0.131,-0.859"
         style="fill:#231f20;fill-opacity:1;fill-rule:nonzero;stroke:none"
         id="path14"
         inkscape:connector-curvature="0" /><path
         d="m 333.728,16.7141 -10.278,5.0668 47.212,95.7631 10.281,-5.07 -47.215,-95.7599"
         style="fill:#231f20;fill-opacity:1;fill-rule:nonzero;stroke:none"
         id="path294"
         inkscape:connector-curvature="0" /><path
         d="m 345.028,11.143 -10.279,5.0699 47.212,95.7601 10.281,-5.068 -47.214,-95.762"
         style="fill:#231f20;fill-opacity:1;fill-rule:nonzero;stroke:none"
         id="path296"
         inkscape:connector-curvature="0" /><path
         d="m 356.33,5.57109 -10.281,5.06681 47.211,95.7651 10.281,-5.07 L 356.33,5.57109"
         style="fill:#231f20;fill-opacity:1;fill-rule:nonzero;stroke:none"
         id="path298"
         inkscape:connector-curvature="0" /><path
         d="M 367.629,0 357.348,5.06992 404.559,100.832 414.84,95.7637 367.629,0"
         style="fill:#231f20;fill-opacity:1;fill-rule:nonzero;stroke:none"
         id="path300"
         inkscape:connector-curvature="0" /><path
         d="M 384.8,6.34492 374.522,11.4141 410.42,84.2281 420.701,79.1582 384.8,6.34492"
         style="fill:#231f20;fill-opacity:1;fill-rule:nonzero;stroke:none"
         id="path302"
         inkscape:connector-curvature="0" /><path
         d="M 396.102,0.773047 385.821,5.84297 421.719,78.6566 432,73.5871 396.102,0.773047"
         style="fill:#231f20;fill-opacity:1;fill-rule:nonzero;stroke:none"
         id="path304"
         inkscape:connector-curvature="0" /><path
         d="M 98.2715,17.366 108.553,22.4359 61.3391,118.198 51.0586,113.128 98.2715,17.366"
         style="fill:#231f20;fill-opacity:1;fill-rule:nonzero;stroke:none"
         id="path306"
         inkscape:connector-curvature="0" /><path
         d="M 86.9727,11.7949 97.2535,16.8648 50.0402,112.626 39.7594,107.558 86.9727,11.7949"
         style="fill:#231f20;fill-opacity:1;fill-rule:nonzero;stroke:none"
         id="path308"
         inkscape:connector-curvature="0" /><path
         d="M 75.6719,6.22383 85.9531,11.293 38.7395,107.057 28.459,101.987 75.6719,6.22383"
         style="fill:#231f20;fill-opacity:1;fill-rule:nonzero;stroke:none"
         id="path310"
         inkscape:connector-curvature="0" /><path
         d="M 64.3742,0.655078 74.6539,5.72188 27.4422,101.485 17.1609,96.4156 64.3742,0.655078"
         style="fill:#231f20;fill-opacity:1;fill-rule:nonzero;stroke:none"
         id="path312"
         inkscape:connector-curvature="0" /><path
         d="M 47.2,7 57.4797,12.066 21.5801,84.8805 11.3008,79.8137 47.2,7"
         style="fill:#231f20;fill-opacity:1;fill-rule:nonzero;stroke:none"
         id="path314"
         inkscape:connector-curvature="0" /><path
         d="M 35.8996,1.42813 46.1805,6.49492 10.2813,79.309 0,74.2426 35.8996,1.42813"
         style="fill:#231f20;fill-opacity:1;fill-rule:nonzero;stroke:none"
         id="path316"
         inkscape:connector-curvature="0" /><path
         d="m 90.9625,69.0367 c 33.3935,19.1367 77.9205,29.6758 125.3755,29.6758 47.457,0 91.98,-10.5391 125.376,-29.6758 0.802,-0.457 1.59,-0.9265 2.375,-1.3926 l 5.235,10.6176 c -0.578,0.3418 -1.151,0.6844 -1.741,1.0238 -35.151,20.1415 -81.761,31.2355 -131.245,31.2355 -49.483,0 -96.094,-11.094 -131.2466,-31.2355 -0.6801,-0.3925 -1.3441,-0.7878 -2.0141,-1.1835 l 5.2348,-10.6172 c 0.8738,0.5191 1.7543,1.0418 2.6504,1.5519"
         style="fill:#231f20;fill-opacity:1;fill-rule:nonzero;stroke:none"
         id="path318"
         inkscape:connector-curvature="0" /></g></g></svg>