<?xml version="1.0" encoding="UTF-8" standalone="no"?>
<!-- Created with Inkscape (http://www.inkscape.org/) -->

<svg
   xmlns:dc="http://purl.org/dc/elements/1.1/"
   xmlns:cc="http://creativecommons.org/ns#"
   xmlns:rdf="http://www.w3.org/1999/02/22-rdf-syntax-ns#"
   xmlns:svg="http://www.w3.org/2000/svg"
   xmlns="http://www.w3.org/2000/svg"
   xmlns:sodipodi="http://sodipodi.sourceforge.net/DTD/sodipodi-0.dtd"
   xmlns:inkscape="http://www.inkscape.org/namespaces/inkscape"
   width="86.362503"
   height="84.412498"
   id="svg2"
   version="1.1"
   inkscape:version="0.48.4 r9939"
   sodipodi:docname="Tuscan-icon-close.svg"
   inkscape:export-filename="/home/jordan/Documents/Donald Rigging Assets/Tuscan-icon-close.png"
   inkscape:export-xdpi="90"
   inkscape:export-ydpi="90">
  <defs
     id="defs4">
    <filter
       id="filter3782"
       inkscape:label="Drop Shadow"
       color-interpolation-filters="sRGB">
      <feFlood
         id="feFlood3784"
         flood-opacity="0.5"
         flood-color="rgb(0,0,0)"
         result="flood" />
      <feComposite
         id="feComposite3786"
         in2="SourceGraphic"
         in="flood"
         operator="in"
         result="composite1" />
      <feGaussianBlur
         id="feGaussianBlur3788"
         stdDeviation="2"
         result="blur" />
      <feOffset
         id="feOffset3790"
         dx="1"
         dy="1"
         result="offset" />
      <feComposite
         id="feComposite3792"
         in2="offset"
         in="SourceGraphic"
         operator="over"
         result="composite2" />
    </filter>
  </defs>
  <sodipodi:namedview
     id="base"
     pagecolor="#ffffff"
     bordercolor="#666666"
     borderopacity="1.0"
     inkscape:pageopacity="0.0"
     inkscape:pageshadow="2"
     inkscape:zoom="33.312468"
     inkscape:cx="17.640709"
     inkscape:cy="66.050944"
     inkscape:document-units="px"
     inkscape:current-layer="layer1"
     showgrid="true"
     fit-margin-top="0"
     fit-margin-left="0"
     fit-margin-right="0"
     fit-margin-bottom="0"
     inkscape:window-width="1366"
     inkscape:window-height="719"
     inkscape:window-x="0"
     inkscape:window-y="0"
     inkscape:window-maximized="1">
    <inkscape:grid
       type="xygrid"
       id="grid3951"
       empspacing="5"
       visible="true"
       enabled="true"
       snapvisiblegridlinesonly="true"
       originx="-354.52188px"
       originy="-495.82779px" />
  </sodipodi:namedview>
  <metadata
     id="metadata7">
    <rdf:RDF>
      <cc:Work
         rdf:about="">
        <dc:format>image/svg+xml</dc:format>
        <dc:type
           rdf:resource="http://purl.org/dc/dcmitype/StillImage" />
        <dc:title></dc:title>
      </cc:Work>
    </rdf:RDF>
  </metadata>
  <g
     inkscape:label="Layer 1"
     inkscape:groupmode="layer"
     id="layer1"
     transform="translate(-354.52188,-472.12188)">
    <g
       id="g3777"
       style="filter:url(#filter3782)">
      <g
         id="g3774">
        <path
           style="fill:#8f6d50;fill-opacity:1;stroke:#000000;stroke-width:2;stroke-miterlimit:4;stroke-opacity:1;stroke-dasharray:none"
           d="M 397.653,505.16265 380,487.36217 c 9.3e-4,3e-4 -5,0 -13,-3 3,8 3.06464,13.0277 3,13 l 17.828,17.6254 -17.99997,17.92486 c 0,0 0.17197,3.44974 -2.82803,11.44974 8,-3 13,-2 13,-2 L 397.65297,524.73748 415,542.36217 c 0,0 5,-1 13,2 -3,-7 -2.59708,-11.4125 -2.59708,-11.4125 L 407.40296,514.98721 425,497.36217 c 0,-4 0,-5 3,-13 -8,3 -13,3 -13,3 z"
           id="path3164"
           inkscape:connector-curvature="0"
           sodipodi:nodetypes="ccccccccccccccccc" />
      </g>
      <path
         sodipodi:nodetypes="ccccccccccccccccc"
         inkscape:connector-curvature="0"
         id="path3164-7"
         d="m 368.5625,498.78125 c 5.46875,5.41667 10.97995,10.83333 16.4487,16.25 -5.33707,6.16696 -11.0764,11.59862 -17.1875,17.21344 0.21875,4.11748 -1.8237,10.11748 -4.16745,15.34906 C 369,545.36217 375,543.36217 380.6875,544.5 c 5.60265,-5.66749 11.51262,-11.49717 17.14269,-17.13783 5.55402,5.63349 11.6064,11.37582 17.16981,17 5.94398,-1.08002 10.98937,1.45577 16.5,3.29408 C 428.68304,542.743 427.17957,536.5741 426.78125,531.5625 421.25,526.04167 415.71875,520.52083 410.1875,515 c 5.39309,-5.95791 11.8125,-11.63783 16.78125,-17.625 -0.33895,-5.78707 2.61739,-11.00894 4.375,-16.34375 -5.63325,2.57739 -11.34375,4.33092 -17.8125,4.9375 -5.3125,5.45833 -10.625,10.91667 -15.9375,16.375 C 391.52144,496.99173 386,490.36217 379.75,485.375 c -5.58822,-0.3371 -10.73521,-2.35802 -15.95519,-4.3013 2.20519,5.28847 4.03113,12.0292 4.76769,17.70755 z"
         style="fill:none;stroke:#ffffff;stroke-width:2;stroke-miterlimit:4;stroke-opacity:1;stroke-dasharray:none" />
    </g>
  </g>
</svg>
