<?xml version="1.0" encoding="UTF-8" standalone="no"?>
<!-- Generator: Adobe Illustrator 16.0.0, SVG Export Plug-In . SVG Version: 6.00 Build 0)  -->

<svg
   xmlns:dc="http://purl.org/dc/elements/1.1/"
   xmlns:cc="http://creativecommons.org/ns#"
   xmlns:rdf="http://www.w3.org/1999/02/22-rdf-syntax-ns#"
   xmlns:svg="http://www.w3.org/2000/svg"
   xmlns="http://www.w3.org/2000/svg"
   xmlns:sodipodi="http://sodipodi.sourceforge.net/DTD/sodipodi-0.dtd"
   xmlns:inkscape="http://www.inkscape.org/namespaces/inkscape"
   version="1.1"
   id="Capa_1"
   x="0px"
   y="0px"
   width="48"
   height="48"
   viewBox="0 0 48 48"
   xml:space="preserve"
   inkscape:version="0.48.4 r9939"
   sodipodi:docname="facebook.svg"><metadata
     id="metadata42"><rdf:RDF><cc:Work
         rdf:about=""><dc:format>image/svg+xml</dc:format><dc:type
           rdf:resource="http://purl.org/dc/dcmitype/StillImage" /></cc:Work></rdf:RDF></metadata><defs
     id="defs40" /><sodipodi:namedview
     pagecolor="#ffffff"
     bordercolor="#666666"
     borderopacity="1"
     objecttolerance="10"
     gridtolerance="10"
     guidetolerance="10"
     inkscape:pageopacity="0"
     inkscape:pageshadow="2"
     inkscape:window-width="1366"
     inkscape:window-height="719"
     id="namedview38"
     showgrid="false"
     inkscape:zoom="0.4627451"
     inkscape:cx="-141.54661"
     inkscape:cy="255"
     inkscape:window-x="0"
     inkscape:window-y="0"
     inkscape:window-maximized="1"
     inkscape:current-layer="Capa_1"
     fit-margin-top="0"
     fit-margin-left="0"
     fit-margin-right="0"
     fit-margin-bottom="0" /><g
     id="g3"
     style="fill:#8f6d50;fill-opacity:1"
     transform="scale(0.09411765,0.09411765)"><g
       id="post-facebook"
       style="fill:#8f6d50;fill-opacity:1"><path
         d="M 459,0 H 51 C 22.95,0 0,22.95 0,51 v 408 c 0,28.05 22.95,51 51,51 h 408 c 28.05,0 51,-22.95 51,-51 V 51 C 510,22.95 487.05,0 459,0 z m -25.5,51 v 76.5 h -51 c -15.3,0 -25.5,10.2 -25.5,25.5 v 51 h 76.5 v 76.5 H 357 V 459 H 280.5 V 280.5 h -51 V 204 h 51 V 140.25 C 280.5,91.8 321.3,51 369.75,51 h 63.75 z"
         id="path6"
         style="fill:#8f6d50;fill-opacity:1"
         inkscape:connector-curvature="0" /></g></g><g
     id="g8"
     transform="translate(0,-462)" /><g
     id="g10"
     transform="translate(0,-462)" /><g
     id="g12"
     transform="translate(0,-462)" /><g
     id="g14"
     transform="translate(0,-462)" /><g
     id="g16"
     transform="translate(0,-462)" /><g
     id="g18"
     transform="translate(0,-462)" /><g
     id="g20"
     transform="translate(0,-462)" /><g
     id="g22"
     transform="translate(0,-462)" /><g
     id="g24"
     transform="translate(0,-462)" /><g
     id="g26"
     transform="translate(0,-462)" /><g
     id="g28"
     transform="translate(0,-462)" /><g
     id="g30"
     transform="translate(0,-462)" /><g
     id="g32"
     transform="translate(0,-462)" /><g
     id="g34"
     transform="translate(0,-462)" /><g
     id="g36"
     transform="translate(0,-462)" /></svg>