<?xml version="1.0" encoding="UTF-8" standalone="no"?>
<!-- Generator: Adobe Illustrator 16.0.0, SVG Export Plug-In . SVG Version: 6.00 Build 0)  -->

<svg
   xmlns:dc="http://purl.org/dc/elements/1.1/"
   xmlns:cc="http://creativecommons.org/ns#"
   xmlns:rdf="http://www.w3.org/1999/02/22-rdf-syntax-ns#"
   xmlns:svg="http://www.w3.org/2000/svg"
   xmlns="http://www.w3.org/2000/svg"
   xmlns:sodipodi="http://sodipodi.sourceforge.net/DTD/sodipodi-0.dtd"
   xmlns:inkscape="http://www.inkscape.org/namespaces/inkscape"
   version="1.1"
   id="Capa_1"
   x="0px"
   y="0px"
   width="47.968956"
   height="47.968956"
   viewBox="0 0 47.968956 47.968956"
   xml:space="preserve"
   inkscape:version="0.48.4 r9939"
   sodipodi:docname="linkedin24.svg"><metadata
     id="metadata42"><rdf:RDF><cc:Work
         rdf:about=""><dc:format>image/svg+xml</dc:format><dc:type
           rdf:resource="http://purl.org/dc/dcmitype/StillImage" /><dc:title></dc:title></cc:Work></rdf:RDF></metadata><defs
     id="defs40" /><sodipodi:namedview
     pagecolor="#ffffff"
     bordercolor="#666666"
     borderopacity="1"
     objecttolerance="10"
     gridtolerance="10"
     guidetolerance="10"
     inkscape:pageopacity="0"
     inkscape:pageshadow="2"
     inkscape:window-width="1366"
     inkscape:window-height="719"
     id="namedview38"
     showgrid="false"
     fit-margin-top="0"
     fit-margin-left="0"
     fit-margin-right="0"
     fit-margin-bottom="0"
     inkscape:zoom="0.4627451"
     inkscape:cx="-141.0466"
     inkscape:cy="255.50001"
     inkscape:window-x="0"
     inkscape:window-y="0"
     inkscape:window-maximized="1"
     inkscape:current-layer="Capa_1" /><g
     id="g3"
     style="fill:#8f6d50;fill-opacity:1;stroke:#8f6d50;stroke-opacity:1"
     transform="matrix(0.09387271,0,0,0.09387271,0.04693636,0.04693636)"
     inkscape:export-filename="/home/jordan/Projects/jordanlos.github.io/img/linked-in.png"
     inkscape:export-xdpi="90"
     inkscape:export-ydpi="90"><g
       id="post-linkedin"
       style="fill:#8f6d50;fill-opacity:1;stroke:#8f6d50;stroke-opacity:1"><path
         d="M 459,0 H 51 C 22.95,0 0,22.95 0,51 v 408 c 0,28.05 22.95,51 51,51 h 408 c 28.05,0 51,-22.95 51,-51 V 51 C 510,22.95 487.05,0 459,0 z M 153,433.5 H 76.5 V 204 H 153 V 433.5 z M 114.75,160.65 c -25.5,0 -45.9,-20.4 -45.9,-45.9 0,-25.5 20.4,-45.9 45.9,-45.9 25.5,0 45.9,20.4 45.9,45.9 0,25.5 -20.4,45.9 -45.9,45.9 z M 433.5,433.5 H 357 V 298.35 c 0,-20.399 -17.85,-38.25 -38.25,-38.25 -20.4,0 -38.25,17.851 -38.25,38.25 V 433.5 H 204 V 204 h 76.5 v 30.6 c 12.75,-20.4 40.8,-35.7 63.75,-35.7 48.45,0 89.25,40.8 89.25,89.25 V 433.5 z"
         id="path6"
         style="fill:#8f6d50;fill-opacity:1;stroke:#8f6d50;stroke-opacity:1"
         inkscape:connector-curvature="0" /></g></g><g
     id="g8"
     transform="translate(0.50001004,-462.53105)" /><g
     id="g10"
     transform="translate(0.50001004,-462.53105)" /><g
     id="g12"
     transform="translate(0.50001004,-462.53105)" /><g
     id="g14"
     transform="translate(0.50001004,-462.53105)" /><g
     id="g16"
     transform="translate(0.50001004,-462.53105)" /><g
     id="g18"
     transform="translate(0.50001004,-462.53105)" /><g
     id="g20"
     transform="translate(0.50001004,-462.53105)" /><g
     id="g22"
     transform="translate(0.50001004,-462.53105)" /><g
     id="g24"
     transform="translate(0.50001004,-462.53105)" /><g
     id="g26"
     transform="translate(0.50001004,-462.53105)" /><g
     id="g28"
     transform="translate(0.50001004,-462.53105)" /><g
     id="g30"
     transform="translate(0.50001004,-462.53105)" /><g
     id="g32"
     transform="translate(0.50001004,-462.53105)" /><g
     id="g34"
     transform="translate(0.50001004,-462.53105)" /><g
     id="g36"
     transform="translate(0.50001004,-462.53105)" /></svg>