<?xml version="1.0" encoding="UTF-8" standalone="no"?>
<!-- Generator: Adobe Illustrator 16.0.0, SVG Export Plug-In . SVG Version: 6.00 Build 0)  -->

<svg
   xmlns:dc="http://purl.org/dc/elements/1.1/"
   xmlns:cc="http://creativecommons.org/ns#"
   xmlns:rdf="http://www.w3.org/1999/02/22-rdf-syntax-ns#"
   xmlns:svg="http://www.w3.org/2000/svg"
   xmlns="http://www.w3.org/2000/svg"
   xmlns:sodipodi="http://sodipodi.sourceforge.net/DTD/sodipodi-0.dtd"
   xmlns:inkscape="http://www.inkscape.org/namespaces/inkscape"
   version="1.1"
   id="Capa_1"
   x="0px"
   y="0px"
   width="48"
   height="48"
   viewBox="0 0 48 48"
   xml:space="preserve"
   inkscape:version="0.48.4 r9939"
   sodipodi:docname="phone370.svg"><metadata
     id="metadata42"><rdf:RDF><cc:Work
         rdf:about=""><dc:format>image/svg+xml</dc:format><dc:type
           rdf:resource="http://purl.org/dc/dcmitype/StillImage" /><dc:title></dc:title></cc:Work></rdf:RDF></metadata><defs
     id="defs40" /><sodipodi:namedview
     pagecolor="#ffffff"
     bordercolor="#666666"
     borderopacity="1"
     objecttolerance="10"
     gridtolerance="10"
     guidetolerance="10"
     inkscape:pageopacity="0"
     inkscape:pageshadow="2"
     inkscape:window-width="1366"
     inkscape:window-height="719"
     id="namedview38"
     showgrid="false"
     fit-margin-top="0"
     fit-margin-left="0"
     fit-margin-right="0"
     fit-margin-bottom="0"
     inkscape:zoom="11.104167"
     inkscape:cx="24"
     inkscape:cy="24"
     inkscape:window-x="0"
     inkscape:window-y="0"
     inkscape:window-maximized="1"
     inkscape:current-layer="Capa_1" /><g
     id="g3"
     style="fill:#8f6d50;fill-opacity:1"
     transform="scale(0.10457516,0.10457516)"
     inkscape:export-filename="/home/jordan/Projects/jordanlos.github.io/img/phone.png"
     inkscape:export-xdpi="90"
     inkscape:export-ydpi="90"><g
       id="call"
       style="fill:#8f6d50;fill-opacity:1"><path
         d="m 91.8,198.9 c 35.7,71.4 96.9,130.05 168.3,168.3 l 56.1,-56.1 c 7.649,-7.649 17.85,-10.199 25.5,-5.1 28.05,10.2 58.649,15.3 91.8,15.3 15.3,0 25.5,10.2 25.5,25.5 v 86.7 C 459,448.8 448.8,459 433.5,459 193.8,459 0,265.2 0,25.5 0,10.2 10.2,0 25.5,0 h 89.25 c 15.3,0 25.5,10.2 25.5,25.5 0,30.6 5.1,61.2 15.3,91.8 2.55,7.65 0,17.85 -5.1,25.5 L 91.8,198.9 z"
         id="path6"
         style="fill:#8f6d50;fill-opacity:1"
         inkscape:connector-curvature="0" /></g></g><g
     id="g8"
     transform="translate(0,-411)" /><g
     id="g10"
     transform="translate(0,-411)" /><g
     id="g12"
     transform="translate(0,-411)" /><g
     id="g14"
     transform="translate(0,-411)" /><g
     id="g16"
     transform="translate(0,-411)" /><g
     id="g18"
     transform="translate(0,-411)" /><g
     id="g20"
     transform="translate(0,-411)" /><g
     id="g22"
     transform="translate(0,-411)" /><g
     id="g24"
     transform="translate(0,-411)" /><g
     id="g26"
     transform="translate(0,-411)" /><g
     id="g28"
     transform="translate(0,-411)" /><g
     id="g30"
     transform="translate(0,-411)" /><g
     id="g32"
     transform="translate(0,-411)" /><g
     id="g34"
     transform="translate(0,-411)" /><g
     id="g36"
     transform="translate(0,-411)" /></svg>